#!OML:ASF H:\Swim 2\Project 1\Capture day 1\Session 1\male.ASF
:FULLY-SPECIFIED
:DEGREES
1945
root 7.66723 8.88357 12.2008 75.8708 2.07507 178.094
lowerback 29.7118 -7.8791 -0.0997563
upperback -1.73667 -5.27554 13.2361
thorax -17.0061 -0.323995 17.3795
lowerneck -12.837 8.01446 -17.603
upperneck 46.1647 16.4052 -5.80134
head 19.8294 -1.71046 1.51989
rclavicle 4.13472e-014 -1.02573e-013
rhumerus -127.625 64.6185 -121.515
rradius 28.3915
rwrist 24.0004
rhand -41.3867 21.5178
rfingers 7.12502
rthumb -14.3043 -7.96947
lclavicle 4.13472e-014 -1.02573e-013
lhumerus -1392.44 -3.56634 1401.24
lradius 26.7334
lwrist 15.2705
lhand -26.6336 17.8738
lfingers 7.12502
lthumb -0.0662415 407.854
rfemur 23.3203 7.44527 25.2358
rtibia 22.2014
rfoot -0.11908 -10.1515
rtoes 22.0238
lfemur 33.6348 -2.88379 -31.5418
ltibia 23.5297
lfoot 17.037 8.44917
ltoes 56.6214
1946
root 7.66351 8.894 12.2188 76.1564 2.19924 178.072
lowerback 29.3221 -7.86458 0.11957
upperback -1.74083 -5.14226 13.4127
thorax -16.8713 -0.272654 17.3706
lowerneck -12.7729 8.19515 -17.4796
upperneck 46.1615 16.69 -5.95232
head 19.8335 -1.61797 1.46133
rclavicle -1.65389e-013 8.0309e-014
rhumerus -128.726 63.9692 -123.101
rradius 28.1851
rwrist 22.9163
rhand -40.3623 20.3282
rfingers 7.12502
rthumb -13.317 -9.22629
lclavicle -1.65389e-013 8.0309e-014
lhumerus -1393.27 -2.65986 1401.38
lradius 26.664
lwrist 14.317
lhand -26.6358 17.3594
lfingers 7.12502
lthumb -0.0683751 407.339
rfemur 22.4963 7.6026 25.1785
rtibia 21.6806
rfoot 0.266976 -10.2775
rtoes 20.7091
lfemur 34.4295 -2.90498 -31.6077
ltibia 23.1304
lfoot 18.7876 7.0684
ltoes 57.7004
1947
root 7.66087 8.90385 12.2361 76.4076 2.31587 178.044
lowerback 28.9783 -7.85633 0.322789
upperback -1.74693 -5.03116 13.5618
thorax -16.7532 -0.23147 17.3518
lowerneck -12.7409 8.37264 -17.3228
upperneck 46.2105 16.9723 -6.0788
head 19.8826 -1.53159 1.40665
rclavicle -2.8625e-014 7.95139e-016
rhumerus -129.867 63.3045 -124.789
rradius 28.0475
rwrist 21.392
rhand -39.1455 19.0076
rfingers 7.12502
rthumb -12.144 -10.6199
lclavicle -2.8625e-014 7.95139e-016
lhumerus -1394.06 -1.76844 1401.45
lradius 26.6265
lwrist 13.6947
lhand -26.7404 16.8976
lfingers 7.12502
lthumb -0.169319 406.877
rfemur 21.7721 7.73395 25.1169
rtibia 21.1466
rfoot 0.681801 -10.4174
rtoes 19.7806
lfemur 35.1743 -2.91132 -31.6681
ltibia 22.8058
lfoot 20.3766 5.9054
ltoes 58.6664
1948
root 7.6595 8.91231 12.2518 76.6085 2.42659 178.012
lowerback 28.7006 -7.85583 0.506545
upperback -1.75183 -4.94246 13.6829
thorax -16.6583 -0.199567 17.3259
lowerneck -12.7225 8.53818 -17.16
upperneck 46.2565 17.2315 -6.17492
head 19.9293 -1.44469 1.36504
rclavicle -2.54444e-014 2.46493e-014
rhumerus -130.987 62.6445 -126.511
rradius 27.9632
rwrist 19.4648
rhand -37.7378 17.5395
rfingers 7.12502
rthumb -10.7864 -12.1636
lclavicle -2.54444e-014 2.46493e-014
lhumerus -1394.81 -0.773426 1401.67
lradius 26.5909
lwrist 13.083
lhand -26.8859 16.4697
lfingers 7.12502
lthumb -0.309912 406.449
rfemur 21.1675 7.85109 25.0662
rtibia 20.6013
rfoot 1.11669 -10.5942
rtoes 19.3457
lfemur 35.8609 -2.881 -31.7019
ltibia 22.6022
lfoot 21.8092 4.94758
ltoes 59.5372
1949
root 7.65944 8.91887 12.2655 76.7585 2.53455 177.979
lowerback 28.491 -7.86191 0.672696
upperback -1.7537 -4.87206 13.7789
thorax -16.587 -0.175003 17.2936
lowerneck -12.7193 8.68452 -17.0073
upperneck 46.2984 17.4578 -6.23415
head 19.9705 -1.36141 1.34121
rclavicle 4.45278e-014 1.37559e-013
rhumerus -132.011 62.009 -128.18
rradius 27.9247
rwrist 17.1713
rhand -36.1299 15.8646
rfingers 7.12502
rthumb -9.23513 -13.9131
lclavicle 4.45278e-014 1.37559e-013
lhumerus -1395.52 0.293363 1401.96
lradius 26.554
lwrist 12.478
lhand -27.0516 16.096
lfingers 7.12502
lthumb -0.469947 406.075
rfemur 20.6868 7.95706 25.0341
rtibia 20.0446
rfoot 1.62324 -10.7692
rtoes 19.0834
lfemur 36.4635 -2.79837 -31.6872
ltibia 22.5707
lfoot 23.0956 4.17343
ltoes 60.3295
1950
root 7.66048 8.92353 12.2774 76.8452 2.63991 177.942
lowerback 28.364 -7.87 0.819352
upperback -1.74825 -4.81129 13.8535
thorax -16.5443 -0.152894 17.2585
lowerneck -12.7253 8.8083 -16.8755
upperneck 46.32 17.6473 -6.2666
head 19.9941 -1.28224 1.33229
rclavicle 1.90833e-014 4.53229e-014
rhumerus -132.818 61.4319 -129.659
rradius 27.9115
rwrist 14.5734
rhand -34.2872 13.9647
rfingers 7.12502
rthumb -7.45679 -15.8838
lclavicle 1.90833e-014 4.53229e-014
lhumerus -1396.19 1.46133 1402.36
lradius 26.5045
lwrist 11.7775
lhand -27.2164 15.754
lfingers 7.12502
lthumb -0.629091 405.733
rfemur 20.3436 8.05478 25.0244
rtibia 19.4818
rfoot 2.18185 -10.9276
rtoes 18.9238
lfemur 36.9721 -2.64214 -31.6073
ltibia 22.7518
lfoot 24.3348 3.54107
ltoes 61.0601
